
<svg width="433px" height="448px" viewBox="0 0 433 448" version="1.1" xmlns="http://www.w3.org/2000/svg" xmlns:xlink="http://www.w3.org/1999/xlink">
    <defs>
        <path d="M0,26.0036173 C0,11.642216 11.642752,0 25.9991336,0 L276.993842,0 C288.042938,0 298.645631,8.80896758 300.6709,19.650111 L326.959935,160.373769 C329.191201,172.317606 321.149998,182 308.993692,182 L9.99635095,182 C4.47551877,182 0,177.523723 0,172.004481 L0,26.0036173 Z" id="path-1"></path>
        <path d="M-8.89178543e-15,27.0069965 C-3.98098794e-15,12.6437289 6.87889947,10.3885428 15.3633353,21.9683731 L49.1843543,68.1283853 C55.7099552,77.0347348 69.4701588,87.1722569 79.9053664,90.7666061 L310.206057,170.0924 C321.690235,174.048061 321.149998,177.254758 308.993692,177.254758 L9.99635095,177.254758 C4.47551877,177.254758 -5.87341214e-14,172.787556 -5.68434189e-14,167.257565 L-8.89178543e-15,27.0069965 Z" id="path-2"></path>
        <path d="M1.13975848,97.8763178 C8.13975848,178.376318 325,146 325,146 L327.847469,160.308145 C330.218035,172.219918 322.289757,181.876318 310.13345,181.876318 L11.1361094,181.876318 C5.61527724,181.876318 1.04548336,177.395217 0.933931746,171.878805 C0.933931746,171.878805 -1.29855662,69.8356942 1.13975848,97.8763178 Z" id="path-3"></path>
        <rect id="path-4" x="186" y="91" width="56" height="45" rx="10"></rect>
        <rect id="path-5" x="244" y="91" width="56" height="45" rx="10"></rect>
        <rect id="path-6" x="155" y="91" width="26.2386172" height="45" rx="10"></rect>
        <rect id="path-7" x="12" y="15" width="63" height="45" rx="10"></rect>
        <rect id="path-8" x="86" y="91" width="63" height="45" rx="10"></rect>
        <rect id="path-9" x="79.1193086" y="15" width="62" height="45" rx="10"></rect>
        <rect id="path-10" x="183" y="15" width="56" height="45" rx="10"></rect>
        <path d="M243,25.0009266 C243,19.4775673 247.478321,15 253.004518,15 L281.995482,15 C287.520825,15 292.687136,19.4173057 293.53618,24.875441 L297.46382,50.124559 C298.312229,55.5786145 294.523722,60 289.004468,60 L252.995532,60 C247.475152,60 243,55.5207109 243,49.9990734 L243,25.0009266 Z" id="path-11"></path>
        <rect id="path-12" x="145.880691" y="15" width="33.2400017" height="45" rx="10"></rect>
        <rect id="path-13" x="49" y="91" width="33.2400017" height="45" rx="10"></rect>
        <linearGradient x1="50%" y1="0%" x2="50%" y2="100%" id="linearGradient-14">
            <stop stop-color="#FFE100" offset="45.8964445%"></stop>
            <stop stop-color="#000000" offset="100%"></stop>
        </linearGradient>
    </defs>
    <g id="Page-1" stroke="none" stroke-width="1" fill="none" fill-rule="evenodd">
        <g id="Group-4" transform="translate(49.000000, 126.000000)">
            <g id="Rectangle">
                <use fill="#FFE100" fill-rule="evenodd" xlink:href="#path-1"></use>
                <path stroke="#979797" stroke-width="1" d="M0.5,26.0036173 C0.5,11.9192252 11.9180277,0.5 25.9991336,0.5 L276.993842,0.5 C287.798265,0.5 298.197618,9.13355214 300.179403,19.7419292 L326.468438,160.465587 C328.642395,172.102654 320.836208,181.5 308.993692,181.5 L9.99635095,181.5 C4.75205115,181.5 0.5,177.247971 0.5,172.004481 L0.5,26.0036173 Z"></path>
            </g>
            <g id="Rectangle">
                <use fill="#0A8DD1" fill-rule="evenodd" xlink:href="#path-2"></use>
                <path stroke="#979797" stroke-width="1" d="M0.5,27.0069965 C0.5,13.1271191 6.76121165,11.0739043 14.9600093,22.2638864 L48.7810283,68.4238986 C55.3655843,77.4107119 69.2089329,87.6111084 79.742533,91.2393484 L310.043224,170.565142 C320.99405,174.337093 320.58541,176.754758 308.993692,176.754758 L9.99635095,176.754758 C4.74859906,176.754758 0.5,172.508353 0.5,167.257565 L0.5,27.0069965 Z"></path>
            </g>
            <g id="Rectangle">
                <use fill="#041835" fill-rule="evenodd" xlink:href="#path-3"></use>
                <path stroke="#979797" stroke-width="1" d="M324.598219,146.542805 L327.357085,160.405736 C329.66626,172.009023 321.973634,181.376318 310.13345,181.376318 L11.1361094,181.376318 C5.88854808,181.376318 1.53989947,177.114029 1.43382955,171.868696 C1.43199004,171.784585 1.43199004,171.784585 1.42332774,171.383138 C1.41147335,170.830276 1.40486183,170.519812 1.39369079,169.989921 C1.36177264,168.475904 1.32620631,166.75106 1.28790388,164.846057 C1.17846763,159.403157 1.06903117,153.607636 0.966891035,147.704861 C0.875465507,142.421293 0.794284517,137.300108 0.726056311,132.432395 C0.5218687,117.864714 0.446662878,106.575411 0.538341677,99.8449965 C0.551136707,98.9056752 0.567480026,98.0569807 0.587017606,97.3046353 C0.604986014,97.5025224 0.623193252,97.7075159 0.641638183,97.9196326 C2.28856357,116.859275 20.7499244,130.529877 53.5385401,139.559229 C81.2454123,147.189168 118.516999,151.336556 162.997323,152.555723 C201.971052,153.623959 243.732825,152.403817 284.745493,149.716028 C295.487313,149.012057 305.345613,148.25779 314.103554,147.503499 C317.169101,147.239474 319.878225,146.994295 322.203819,146.774246 C323.017938,146.697214 323.726008,146.62882 324.32464,146.569851 C324.424902,146.559974 324.516119,146.550954 324.598219,146.542805 Z"></path>
            </g>
            <g id="Rectangle-2">
                <use fill="#818181" fill-rule="evenodd" xlink:href="#path-4"></use>
                <rect stroke="#979797" stroke-width="1" x="186.5" y="91.5" width="55" height="44" rx="10"></rect>
            </g>
            <g id="Rectangle-2">
                <use fill="#818181" fill-rule="evenodd" xlink:href="#path-5"></use>
                <rect stroke="#979797" stroke-width="1" x="244.5" y="91.5" width="55" height="44" rx="10"></rect>
            </g>
            <g id="Rectangle-2">
                <use fill="#818181" fill-rule="evenodd" xlink:href="#path-6"></use>
                <rect stroke="#979797" stroke-width="1" x="155.5" y="91.5" width="25.2386172" height="44" rx="10"></rect>
            </g>
            <g id="Rectangle-2">
                <use fill="#818181" fill-rule="evenodd" xlink:href="#path-7"></use>
                <rect stroke="#979797" stroke-width="1" x="12.5" y="15.5" width="62" height="44" rx="10"></rect>
            </g>
            <g id="Rectangle-2">
                <use fill="#818181" fill-rule="evenodd" xlink:href="#path-8"></use>
                <rect stroke="#979797" stroke-width="1" x="86.5" y="91.5" width="62" height="44" rx="10"></rect>
            </g>
            <g id="Rectangle-2">
                <use fill="#818181" fill-rule="evenodd" xlink:href="#path-9"></use>
                <rect stroke="#979797" stroke-width="1" x="79.6193086" y="15.5" width="61" height="44" rx="10"></rect>
            </g>
            <g id="Rectangle-2">
                <use fill="#818181" fill-rule="evenodd" xlink:href="#path-10"></use>
                <rect stroke="#979797" stroke-width="1" x="183.5" y="15.5" width="55" height="44" rx="10"></rect>
            </g>
            <g id="Rectangle-2">
                <use fill="#818181" fill-rule="evenodd" xlink:href="#path-11"></use>
                <path stroke="#979797" stroke-width="1" d="M243.5,25.0009266 C243.5,19.7534484 247.754725,15.5 253.004518,15.5 L281.995482,15.5 C287.275903,15.5 292.2312,19.7392268 293.042121,24.9522945 L296.969762,50.2014125 C297.770952,55.3519207 294.21736,59.5 289.004468,59.5 L252.995532,59.5 C247.751962,59.5 243.5,55.2452369 243.5,49.9990734 L243.5,25.0009266 Z"></path>
            </g>
            <g id="Rectangle-2">
                <use fill="#818181" fill-rule="evenodd" xlink:href="#path-12"></use>
                <rect stroke="#979797" stroke-width="1" x="146.380691" y="15.5" width="32.2400017" height="44" rx="10"></rect>
            </g>
            <g id="Rectangle-2">
                <use fill="#818181" fill-rule="evenodd" xlink:href="#path-13"></use>
                <rect stroke="#979797" stroke-width="1" x="49.5" y="91.5" width="32.2400017" height="44" rx="10"></rect>
            </g>
                <g id="Group-3" transform="translate(42.000000, 158.000000)">
                    <g id="Group-2" transform="translate(23.500000, 23.500000) rotate(539.000000) translate(-23.500000, -23.500000) translate(1.000000, 1.000000)" stroke="#BCBCBC" stroke-width="2">
                        <circle id="Oval" fill="#000000" transform="translate(22.500000, 22.500000) rotate(90.000000) translate(-22.500000, -22.500000) " cx="22.5" cy="22.5" r="22.5"></circle>
                        <circle id="Oval" fill="#DBDADA" transform="translate(22.500000, 22.500000) rotate(90.000000) translate(-22.500000, -22.500000) " cx="22.5" cy="22.5" r="16.5"></circle>
                    </g>
                    <g>
                  <animateTransform attributeName="transform"
                    attributeType="XML"
                    type="rotate"
                    from="0 23 23"
                    to="360 23 23"
                    begin="0s"
                    dur="1.5s"
                repeatCount="indefinite"/>
                <path d="M23.4913119,2.00443925 L22.9913119,44.0044393" id="Path-2" stroke="#000000" transform="translate(23.241312, 23.004439) rotate(359.000000) translate(-23.241312, -23.004439) "></path>
                <path d="M23.4913119,2.00443925 L22.9913119,44.0044393" id="Path-2" stroke="#000000" transform="translate(23.241312, 23.004439) rotate(449.000000) translate(-23.241312, -23.004439) "></path>
                </g>
            </g>
            <g id="Group-3" transform="translate(211.000000, 158.000000)">
                <g id="Group-2" transform="translate(23.500000, 23.500000) rotate(539.000000) translate(-23.500000, -23.500000) translate(1.000000, 1.000000)" stroke="#BCBCBC" stroke-width="2">
                    <circle id="Oval" fill="#000000" transform="translate(22.500000, 22.500000) rotate(90.000000) translate(-22.500000, -22.500000) " cx="22.5" cy="22.5" r="22.5"></circle>
                    <circle id="Oval" fill="#DBDADA" transform="translate(22.500000, 22.500000) rotate(90.000000) translate(-22.500000, -22.500000) " cx="22.5" cy="22.5" r="16.5"></circle>
                </g>
                <g>
                  <animateTransform
                    attributeName="transform"
                    attributeType="XML"
                    type="rotate"
                    from="0 23 23"
                    to="360 23 23"
                    begin="0s"
                    dur="1.5s"
                    repeatCount="indefinite"/>
                  <path d="M23.4913119,2.00443925 L22.9913119,44.0044393" id="Path-2" stroke="#000000" transform="translate(23.241312, 23.004439) rotate(359.000000) translate(-23.241312, -23.004439) "></path>
                  <path d="M23.4913119,2.00443925 L22.9913119,44.0044393" id="Path-2" stroke="#000000" transform="translate(23.241312, 23.004439) rotate(449.000000) translate(-23.241312, -23.004439) "></path>
                </g>
            </g>
        </g>
        
        <g>
          <animateTransform
            attributeName="transform"
            type="rotate"
            from="0 215 223"
            to="-360 215 223"
            begin="0s"
            dur="0.8s"
            repeatCount="indefinite"/>
          <path d="M213.5,442 L213.5,442 C331.412794,442 427,346.412794 427,228.5 C427,110.587206 331.412794,15 213.5,15" id="Oval-4" stroke="url(#linearGradient-14)" stroke-width="12"></path>
        
        <path d="M0,442 L0,442 C117.912794,442 213.5,346.412794 213.5,228.5 C213.5,110.587206 117.912794,15 0,15" id="Oval-4" transform="translate(106.750000, 228.500000) scale(-1, 1) translate(-106.750000, -228.500000) "></path>
        <ellipse id="Oval-2" fill="#FFE100" cx="214" cy="15" rx="15" ry="15"></ellipse></g>
    </g>
</svg>